<svg width="16" height="16" viewBox="0 0 16 16" fill="none" xmlns="http://www.w3.org/2000/svg">
<path fill-rule="evenodd" clip-rule="evenodd" d="M13.5 3C14.1472 3 14.6795 3.49187 14.7435 4.12219L14.75 4.25V14.75C14.75 15.3972 14.2581 15.9295 13.6278 15.9935L13.5 16H5.5C4.85279 16 4.32047 15.5081 4.25645 14.8778L4.25 14.75V4.25C4.25 3.60279 4.74187 3.07047 5.37219 3.00645L5.5 3H13.5ZM13.25 4.5H5.75V14.5H13.25V4.5ZM10.5 0C11.1472 0 11.6795 0.491875 11.7435 1.12219L11.75 1.25V1.5C11.75 1.91421 11.4142 2.25 11 2.25C10.6203 2.25 10.3065 1.96785 10.2568 1.60177L10.25 1.5H2.75V11.5L2.85177 11.5068C3.18457 11.552 3.44801 11.8154 3.49315 12.1482L3.5 12.25C3.5 12.6297 3.21785 12.9435 2.85177 12.9932L2.75 13H2.5C1.85279 13 1.32047 12.5081 1.25645 11.8778L1.25 11.75V1.25C1.25 0.602791 1.74187 0.0704661 2.37219 0.00645361L2.5 0H10.5Z" fill="#848296"/>
</svg>
