<svg width="16" height="16" viewBox="0 0 16 16" fill="none" xmlns="http://www.w3.org/2000/svg">
<path fill-rule="evenodd" clip-rule="evenodd" d="M4.5 1.998V0.75C4.5 0.335786 4.83579 0 5.25 0H10.75C11.1642 0 11.5 0.335786 11.5 0.75V1.998H14.25C14.6642 1.998 15 2.33379 15 2.748C15 3.16221 14.6642 3.498 14.25 3.498H1.75C1.33579 3.498 1 3.16221 1 2.748C1 2.33379 1.33579 1.998 1.75 1.998H4.5ZM6 1.998H10V1.5H6V1.998ZM12.25 14V5.25C12.25 4.83579 12.5858 4.5 13 4.5C13.4142 4.5 13.75 4.83579 13.75 5.25V14.75C13.75 15.1642 13.4142 15.5 13 15.5H3C2.58579 15.5 2.25 15.1642 2.25 14.75V5.25C2.25 4.83579 2.58579 4.5 3 4.5C3.41421 4.5 3.75 4.83579 3.75 5.25V14H12.25ZM5.7461 6.748C5.7461 6.33379 6.08189 5.998 6.4961 5.998C6.91031 5.998 7.2461 6.33379 7.2461 6.748V11.248C7.2461 11.6622 6.91031 11.998 6.4961 11.998C6.08189 11.998 5.7461 11.6622 5.7461 11.248V6.748ZM8.75 6.748C8.75 6.33379 9.08579 5.998 9.5 5.998C9.91421 5.998 10.25 6.33379 10.25 6.748V11.248C10.25 11.6622 9.91421 11.998 9.5 11.998C9.08579 11.998 8.75 11.6622 8.75 11.248V6.748Z" fill="#848296"/>
</svg>
