<svg width="24" height="24" viewBox="0 0 24 24" fill="none" xmlns="http://www.w3.org/2000/svg">
<path d="M8 19.5H18.5" stroke="#848296" stroke-width="1.5" stroke-linecap="round"/>
<path d="M7.75 16.5L7.75 2.75" stroke="#848296" stroke-width="1.5" stroke-linecap="round"/>
<path d="M19.25 17C19.25 17.4142 19.5858 17.75 20 17.75C20.4142 17.75 20.75 17.4142 20.75 17H20H19.25ZM6 2V2.75H19V2V1.25H6V2ZM20 3H19.25V17H20H20.75V3H20ZM5 19H5.75V3H5H4.25V19H5ZM19 2V2.75C19.1381 2.75 19.25 2.86193 19.25 3H20H20.75C20.75 2.0335 19.9665 1.25 19 1.25V2ZM6 2V1.25C5.0335 1.25 4.25 2.0335 4.25 3H5H5.75C5.75 2.86193 5.86193 2.75 6 2.75V2Z" fill="#706D84"/>
<path d="M20 17H7C5.89543 17 5 17.8954 5 19V20C5 21.1046 5.89543 22 7 22H20" stroke="#706D84" stroke-width="1.5" stroke-linecap="round" stroke-linejoin="round"/>
<path d="M16.9806 12.2755C16.9871 12.3147 16.9903 12.3539 16.9903 12.3932C16.9968 12.4258 17 12.4651 17 12.5108C17 12.5893 16.9774 12.6612 16.9321 12.7265C16.9128 12.7592 16.8869 12.7919 16.8546 12.8246C16.8223 12.8507 16.7835 12.8736 16.7383 12.8932C16.5767 12.9847 16.4055 13.0174 16.2246 12.9913C16.1341 12.9651 16.0533 12.9226 15.9822 12.8638C15.9693 12.8507 15.9596 12.8442 15.9531 12.8442C15.9467 12.8377 15.9402 12.8279 15.9338 12.8148C15.9273 12.8082 15.9208 12.8017 15.9144 12.7952C15.9079 12.7821 15.8982 12.7723 15.8853 12.7658C15.853 12.7331 15.8271 12.7037 15.8078 12.6775C15.7884 12.6448 15.769 12.6121 15.7496 12.5795C15.7367 12.5468 15.7205 12.5174 15.7011 12.4912C15.6882 12.4585 15.6721 12.4258 15.6527 12.3932C15.6397 12.367 15.6268 12.3441 15.6139 12.3245C15.601 12.2984 15.5913 12.2722 15.5848 12.2461C15.559 12.1872 15.5428 12.1349 15.5363 12.0892L15.3328 11.6087C14.8869 11.6087 14.441 11.612 13.9952 11.6185C13.5557 11.6185 13.1131 11.6153 12.6672 11.6087L12.4637 12.0892C12.4507 12.1153 12.441 12.1415 12.4346 12.1676C12.4346 12.1938 12.4281 12.2199 12.4152 12.2461C12.4023 12.2722 12.3893 12.2984 12.3764 12.3245C12.37 12.3441 12.3603 12.367 12.3473 12.3932C12.3279 12.4258 12.3086 12.4585 12.2892 12.4912C12.2763 12.5174 12.2601 12.5468 12.2407 12.5795C12.2278 12.6121 12.2116 12.6448 12.1922 12.6775C12.1729 12.7037 12.147 12.7331 12.1147 12.7658C12.1018 12.7723 12.0921 12.7821 12.0856 12.7952C12.0792 12.8017 12.0727 12.8082 12.0662 12.8148C12.0598 12.8279 12.0533 12.8377 12.0468 12.8442C12.0404 12.8442 12.0307 12.8507 12.0178 12.8638C11.9467 12.9226 11.8659 12.9651 11.7754 12.9913C11.5945 13.0174 11.4233 12.9847 11.2617 12.8932C11.2165 12.8736 11.1777 12.8507 11.1454 12.8246C11.1131 12.7919 11.0872 12.7592 11.0679 12.7265C11.0226 12.6612 11 12.5893 11 12.5108C11 12.4651 11 12.4258 11 12.3932C11.0065 12.3539 11.0129 12.3147 11.0194 12.2755C11.0323 12.2167 11.0485 12.1578 11.0679 12.099C11.0872 12.0402 11.0969 12.0107 11.0969 12.0107L13.1131 6.99035L13.1712 6.83346C13.1842 6.79424 13.2003 6.75829 13.2197 6.7256C13.2391 6.69292 13.2553 6.6537 13.2682 6.60794C13.3005 6.52296 13.336 6.44778 13.3748 6.38241C13.3942 6.34319 13.4168 6.30724 13.4426 6.27455C13.4685 6.24187 13.4943 6.20918 13.5202 6.1765C13.559 6.1242 13.6139 6.08171 13.685 6.04903C13.7754 6.01634 13.8788 6 13.9952 6C14.1179 6 14.2246 6.01634 14.315 6.04903C14.3861 6.08171 14.441 6.1242 14.4798 6.1765C14.525 6.23533 14.5735 6.30397 14.6252 6.38241C14.664 6.44778 14.6995 6.52296 14.7318 6.60794C14.7447 6.6537 14.7609 6.69292 14.7803 6.7256C14.7997 6.75829 14.8158 6.79424 14.8288 6.83346L14.8869 6.99035L16.9031 12.0107C16.9031 12.0107 16.9128 12.0402 16.9321 12.099C16.9515 12.1578 16.9677 12.2167 16.9806 12.2755ZM14.6834 9.87315C14.5994 9.68358 14.5121 9.48747 14.4216 9.28482C14.3376 9.08218 14.2472 8.87626 14.1502 8.66708C14.1244 8.60825 14.0985 8.54942 14.0727 8.49058C14.0468 8.42521 14.021 8.36311 13.9952 8.30428C13.9758 8.36311 13.9532 8.42521 13.9273 8.49058C13.9015 8.54942 13.8756 8.60825 13.8498 8.66708C13.7528 8.87626 13.6591 9.08218 13.5687 9.28482C13.4847 9.48747 13.4006 9.68358 13.3166 9.87315L13.1422 10.3046H14.8578L14.6834 9.87315Z" fill="#706D84"/>
</svg>
