<svg width="17" height="17" viewBox="0 0 17 17" fill="none" xmlns="http://www.w3.org/2000/svg">
<path fill-rule="evenodd" clip-rule="evenodd" d="M4.46967 16.0152C4.33395 15.8795 4.25 15.692 4.25 15.4849V14C4.25 13.5858 4.58579 13.25 5 13.25C5.41421 13.25 5.75 13.5858 5.75 14V14.7349H6.5C6.91421 14.7349 7.25 15.0707 7.25 15.4849C7.25 15.8991 6.91421 16.2349 6.5 16.2349H5C4.79289 16.2349 4.60539 16.1509 4.46967 16.0152V16.0152ZM5 0H6.48488C6.8991 0 7.23488 0.335786 7.23488 0.75C7.23488 1.16421 6.8991 1.5 6.48488 1.5H5.75V2.25C5.75 2.66421 5.41421 3 5 3C4.58579 3 4.25 2.66421 4.25 2.25V0.75C4.25 0.335786 4.58579 0 5 0V0ZM14.75 14.7349V14C14.75 13.5858 15.0858 13.25 15.5 13.25C15.9142 13.25 16.25 13.5858 16.25 14V15.4849C16.25 15.8991 15.9142 16.2349 15.5 16.2349H14C13.5858 16.2349 13.25 15.8991 13.25 15.4849C13.25 15.0707 13.5858 14.7349 14 14.7349H14.75V14.7349ZM14.75 1.5H14.0151C13.6009 1.5 13.2651 1.16421 13.2651 0.75C13.2651 0.335786 13.6009 0 14.0151 0H15.5C15.9142 0 16.25 0.335786 16.25 0.75V2.25C16.25 2.66421 15.9142 3 15.5 3C15.0858 3 14.75 2.66421 14.75 2.25V1.5V1.5ZM0.75 7.5H8.93934L7.21967 5.78033C6.92678 5.48744 6.92678 5.01256 7.21967 4.71967C7.51256 4.42678 7.98744 4.42678 8.28033 4.71967L11.2803 7.71967C11.4161 7.85539 11.5 8.04289 11.5 8.25C11.5 8.45711 11.4161 8.64461 11.2803 8.78033L8.28033 11.7803C7.98744 12.0732 7.51256 12.0732 7.21967 11.7803C6.92678 11.4874 6.92678 11.0126 7.21967 10.7197L8.93934 9H0.75C0.335786 9 0 8.66421 0 8.25C0 7.83579 0.335786 7.5 0.75 7.5ZM16.25 5V6.5C16.25 6.91421 15.9142 7.25 15.5 7.25C15.0858 7.25 14.75 6.91421 14.75 6.5V5C14.75 4.58579 15.0858 4.25 15.5 4.25C15.9142 4.25 16.25 4.58579 16.25 5ZM16.25 9.75V11.25C16.25 11.6642 15.9142 12 15.5 12C15.0858 12 14.75 11.6642 14.75 11.25V9.75C14.75 9.33579 15.0858 9 15.5 9C15.9142 9 16.25 9.33579 16.25 9.75ZM9.5 1.5C9.08579 1.5 8.75 1.16421 8.75 0.75C8.75 0.335786 9.08579 0 9.5 0H10.9849C11.3991 0 11.7349 0.335786 11.7349 0.75C11.7349 1.16421 11.3991 1.5 10.9849 1.5H9.5ZM9.5 16.25C9.08579 16.25 8.75 15.9142 8.75 15.5C8.75 15.0858 9.08579 14.75 9.5 14.75H10.9849C11.3991 14.75 11.7349 15.0858 11.7349 15.5C11.7349 15.9142 11.3991 16.25 10.9849 16.25H9.5Z" fill="#848296"/>
</svg>
