<svg width="16" height="16" viewBox="0 0 16 16" fill="none" xmlns="http://www.w3.org/2000/svg">
<path fill-rule="evenodd" clip-rule="evenodd" d="M9.99994 2.5C11.9329 2.5 13.4999 4.067 13.4999 6C13.4999 7.933 11.9329 9.5 9.99994 9.5C8.06695 9.5 6.49994 7.933 6.49994 6C6.49994 4.067 8.06695 2.5 9.99994 2.5ZM4.99994 6C4.99994 8.76142 7.23852 11 9.99994 11C12.7614 11 14.9999 8.76142 14.9999 6C14.9999 3.23858 12.7614 1 9.99994 1C7.23852 1 4.99994 3.23858 4.99994 6ZM1.53022 15.5303L5.53022 11.5303C5.82311 11.2374 5.82311 10.7626 5.53022 10.4697C5.23732 10.1768 4.76256 10.1768 4.46967 10.4697L0.46967 14.4697C0.176777 14.7626 0.176777 15.2374 0.46967 15.5303C0.762563 15.8232 1.23732 15.8232 1.53022 15.5303Z" fill="white"/>
</svg>
