<svg width="24" height="24" viewBox="0 0 24 24" fill="none" xmlns="http://www.w3.org/2000/svg">
<path fill-rule="evenodd" clip-rule="evenodd" d="M12.7477 1.67346C12.6168 1.65476 12.4937 1.65003 12.3854 1.65002C12.0188 1.65002 11.6696 1.7235 11.3424 1.85217L11.3287 1.85803C10.9996 1.99517 10.6922 2.19485 10.4323 2.45471L2.45862 10.4352C1.94156 10.9524 1.65002 11.6469 1.65002 12.3844C1.65007 13.1171 1.93505 13.8121 2.45959 14.3326V14.3336L9.6676 21.5406C10.1849 22.0579 10.8792 22.3502 11.6168 22.3502C12.3497 22.3502 13.0455 22.0654 13.566 21.5406L16.8043 18.3033L21.5426 13.5651C21.8396 13.2681 22.0682 12.9006 22.2028 12.5026C22.336 12.1084 22.38 11.6822 22.3297 11.2692V11.2653L21.5162 4.87463V4.87268L21.4762 4.64221C21.231 3.50987 20.3 2.63762 19.1285 2.48596L19.1266 2.48499L12.7467 1.67444L12.7477 1.67346ZM3.43323 13.1783C3.24907 12.9565 3.15007 12.6811 3.15002 12.3844C3.15002 12.0488 3.28122 11.7346 3.52014 11.4957L11.4918 3.51526L11.4928 3.51624C11.6046 3.40447 11.7413 3.31251 11.8961 3.2467C12.0632 3.18158 12.225 3.15002 12.3854 3.15002C12.4474 3.15003 12.4952 3.15318 12.5348 3.15881L12.5465 3.16077L18.9362 3.97229V3.97327C19.5067 4.04722 19.9527 4.4943 20.028 5.06311V5.06409L20.8405 11.4489V11.4498C20.8634 11.6384 20.8438 11.839 20.7819 12.0221C20.7213 12.2013 20.616 12.3706 20.4821 12.5045L15.7438 17.2418L12.5026 20.483C12.2673 20.7208 11.9558 20.8502 11.6168 20.8502C11.2812 20.8502 10.9671 20.719 10.7281 20.4801L3.52014 13.2731L3.51721 13.2701L3.43323 13.1783ZM15.3106 8.68948C15.5946 8.97353 15.75 9.3459 15.75 9.75003C15.75 10.1509 15.5941 10.527 15.3106 10.8106C15.027 11.0941 14.6509 11.25 14.25 11.25C13.8492 11.25 13.473 11.0941 13.1895 10.8106C12.9059 10.527 12.75 10.1509 12.75 9.75003C12.75 9.34917 12.9059 8.97303 13.1895 8.68948C13.4735 8.40543 13.8459 8.25003 14.25 8.25003C14.6509 8.25003 15.027 8.40593 15.3106 8.68948ZM16.3721 11.8721C16.9377 11.3064 17.25 10.5476 17.25 9.75003C17.25 8.9478 16.9372 8.19311 16.3721 7.62796C15.8064 7.0623 15.0476 6.75003 14.25 6.75003C13.4478 6.75003 12.6931 7.0628 12.1279 7.62796C11.5623 8.19361 11.25 8.95247 11.25 9.75003C11.25 10.5476 11.5623 11.3064 12.1279 11.8721C12.6936 12.4377 13.4525 12.75 14.25 12.75C15.0476 12.75 15.8064 12.4378 16.3721 11.8721Z" fill="#706D84"/>
</svg>
