<svg width="24" height="24" viewBox="0 0 24 24" fill="none" xmlns="http://www.w3.org/2000/svg">
<path d="M2.625 3.375C3.03921 3.375 3.375 3.71079 3.375 4.125V20.625C3.375 21.0392 3.71079 21.375 4.125 21.375H17.625C18.0392 21.375 18.375 21.7108 18.375 22.125C18.375 22.5392 18.0392 22.875 17.625 22.875H4.125C2.88236 22.875 1.875 21.8676 1.875 20.625V4.125C1.875 3.71079 2.21079 3.375 2.625 3.375ZM14.209 1.125C14.4343 1.12511 14.6503 1.21471 14.8096 1.37402L21.501 8.06543C21.6603 8.22474 21.7499 8.44073 21.75 8.66602V18.2754C21.7498 18.7445 21.3695 19.1248 20.9004 19.125H6.47461C6.00548 19.1248 5.62521 18.7445 5.625 18.2754V1.97461C5.62521 1.50548 6.00548 1.12521 6.47461 1.125H14.209ZM7.125 17.625H20.25V9.375H15.6748C14.2666 9.37489 13.1251 8.23337 13.125 6.8252V2.625H7.125V17.625ZM14.625 6.8252C14.6251 7.40494 15.0951 7.87489 15.6748 7.875H19.1895L14.625 3.31055V6.8252Z" fill="#706D84"/>
</svg>
