<svg width="16" height="16" viewBox="0 0 16 16" fill="none" xmlns="http://www.w3.org/2000/svg">
<path fill-rule="evenodd" clip-rule="evenodd" d="M5.83381 1C6.18507 1 6.51058 1.1843 6.6913 1.4855L7.3087 2.5145C7.48942 2.8157 7.81493 3 8.16619 3H15C15.5523 3 16 3.44772 16 4V6.42995V12.6V13C16 13.5523 15.5523 14 15 14H1C0.447715 14 0 13.5523 0 13V12.6V6.4V1.4C0 1.17909 0.179086 1 0.4 1H5.83381ZM14.5 6.02637L6.4 6H1.5V2.5H5.551L6.02246 3.28624L6.60834 4.25814C6.69882 4.40823 6.861 4.5 7.03627 4.5H8.16619H14.5V6.02637Z" fill="#A2C8F7"/>
<path fill-rule="evenodd" clip-rule="evenodd" d="M9 6H13V11.8528C13 12.1501 12.6871 12.3435 12.4211 12.2106L11 11.5L9.57889 12.2106C9.31292 12.3435 9 12.1501 9 11.8528V6Z" fill="#4C7EAB"/>
</svg>
