<svg width="16" height="16" viewBox="0 0 16 16" fill="none" xmlns="http://www.w3.org/2000/svg">
<path fill-rule="evenodd" clip-rule="evenodd" d="M8 0.75C9.86026 0.75 11.3946 2.14665 11.4948 3.92356L11.5 4.1087L11.5011 5.51788C12.2988 5.63249 12.9227 6.28509 12.9933 7.09616L13 7.25V12.25C13 13.1682 12.2929 13.9212 11.3935 13.9942L11.25 14H4.75C3.83183 14 3.07881 13.2929 3.0058 12.3935L3 12.25V7.25C3 6.36842 3.65188 5.63908 4.4999 5.51774L4.5 4.1087C4.5 2.24463 6.07559 0.75 8 0.75ZM11.25 7H4.75C4.63165 7 4.53251 7.08223 4.5066 7.19268L4.5 7.25V12.25C4.5 12.3683 4.58223 12.4675 4.69268 12.4934L4.75 12.5H11.25C11.3683 12.5 11.4675 12.4178 11.4934 12.3073L11.5 12.25V7.25C11.5 7.13165 11.4178 7.03251 11.3073 7.0066L11.25 7ZM8 8.25C8.82843 8.25 9.5 8.92157 9.5 9.75C9.5 10.5784 8.82843 11.25 8 11.25C7.17157 11.25 6.5 10.5784 6.5 9.75C6.5 8.92157 7.17157 8.25 8 8.25ZM8 2.25C6.93985 2.25 6.08497 3.01306 6.00596 3.96462L6 4.1087V5.5H10V4.1087C10 3.09127 9.11316 2.25 8 2.25Z" fill="#BFC1C6"/>
</svg>
