<svg width="16" height="16" viewBox="0 0 16 16" fill="none" xmlns="http://www.w3.org/2000/svg">
<path fill-rule="evenodd" clip-rule="evenodd" d="M8.44621 2.39705C8.1526 2.1792 7.73594 2.2034 7.46967 2.46967L4.46967 5.46967L4.39705 5.55379C4.1792 5.8474 4.2034 6.26406 4.46967 6.53033L4.55379 6.60295C4.8474 6.8208 5.26406 6.7966 5.53033 6.53033L8 4.061L10.4697 6.53033L10.5538 6.60295C10.8474 6.8208 11.2641 6.7966 11.5303 6.53033C11.8232 6.23744 11.8232 5.76256 11.5303 5.46967L8.53033 2.46967L8.44621 2.39705ZM5.44621 9.39705C5.1526 9.1792 4.73594 9.2034 4.46967 9.46967C4.17678 9.76256 4.17678 10.2374 4.46967 10.5303L7.46967 13.5303L7.55379 13.6029C7.8474 13.8208 8.26406 13.7966 8.53033 13.5303L11.5303 10.5303L11.6029 10.4462C11.8208 10.1526 11.7966 9.73594 11.5303 9.46967L11.4462 9.39705C11.1526 9.1792 10.7359 9.2034 10.4697 9.46967L8 11.939L5.53033 9.46967L5.44621 9.39705Z" fill="#BFC1C6"/>
</svg>
