<svg preserveAspectRatio="none" width="100%" height="100%" overflow="visible" style="display: block;" viewBox="0 0 12 12" fill="none" xmlns="http://www.w3.org/2000/svg">
<g id="Basic / Close-12">
<path id="Icon" d="M8.46973 2.46973C8.76262 2.17683 9.23738 2.17683 9.53027 2.46973C9.82317 2.76262 9.82317 3.23738 9.53027 3.53027L7.06055 6L9.53027 8.46973C9.82317 8.76262 9.82317 9.23738 9.53027 9.53027C9.23738 9.82317 8.76262 9.82317 8.46973 9.53027L6 7.06055L3.53027 9.53027C3.23738 9.82317 2.76262 9.82317 2.46973 9.53027C2.17683 9.23738 2.17683 8.76262 2.46973 8.46973L4.93945 6L2.46973 3.53027C2.17683 3.23738 2.17683 2.76262 2.46973 2.46973C2.76262 2.17683 3.23738 2.17683 3.53027 2.46973L6 4.93945L8.46973 2.46973Z" fill="var(--fill-0, #848296)"/>
</g>
</svg>
