<svg preserveAspectRatio="none" width="100%" height="100%" overflow="visible" style="display: block;" viewBox="0 0 16 16" fill="none" xmlns="http://www.w3.org/2000/svg">
<g id="Basic / Collapse-16">
<path id="Icon" fill-rule="evenodd" clip-rule="evenodd" d="M8.4462 8.897L8.5303 8.9697L11.5303 11.9697C11.6642 12.1035 11.7425 12.2831 11.7495 12.4723C11.7565 12.6614 11.6918 12.8463 11.5682 12.9897C11.4446 13.1331 11.2714 13.2245 11.0832 13.2455C10.8951 13.2665 10.706 13.2155 10.5538 13.1029L10.4697 13.0303L8 10.561L5.5303 13.0303C5.40321 13.1574 5.23474 13.2346 5.05553 13.2479C4.87632 13.2612 4.69828 13.2098 4.5538 13.1029L4.4697 13.0303C4.34265 12.9032 4.26544 12.7347 4.25211 12.5555C4.23879 12.3763 4.29024 12.1983 4.3971 12.0538L4.4697 11.9697L7.4697 8.9697C7.59679 8.84265 7.76526 8.76544 7.94447 8.75211C8.12368 8.73879 8.30172 8.79024 8.4462 8.8971V8.897ZM11.4462 2.897L11.5303 2.9697C11.6574 3.09679 11.7346 3.26526 11.7479 3.44447C11.7612 3.62368 11.7098 3.80172 11.6029 3.9462L11.5303 4.0303L8.5303 7.0303C8.40321 7.15735 8.23474 7.23456 8.05553 7.24789C7.87632 7.26121 7.69828 7.20976 7.5538 7.1029L7.4697 7.0303L4.4697 4.0303C4.33582 3.89645 4.25751 3.71693 4.25048 3.52775C4.24346 3.33857 4.30823 3.15373 4.43181 3.01032C4.55539 2.86691 4.72863 2.77553 4.91678 2.75454C5.10492 2.73354 5.29404 2.78446 5.4462 2.8971L5.5303 2.9697L8 5.439L10.4697 2.9697C10.5968 2.84265 10.7653 2.76544 10.9445 2.75211C11.1237 2.73879 11.3017 2.79024 11.4462 2.8971V2.897Z" fill="var(--fill-0, #C1C0CB)"/>
</g>
</svg>
