<svg preserveAspectRatio="none" width="100%" height="100%" overflow="visible" style="display: block;" viewBox="0 0 72 72" fill="none" xmlns="http://www.w3.org/2000/svg">
<g id="empty-folder">
<path id="Union" d="M26.001 17C26.2798 17.0001 26.5461 17.1165 26.7354 17.3213L31.4385 24H56.001C56.5531 24.0002 57.0009 24.4479 57.001 25L57 28C56.9999 28.5522 56.5522 29 56 29C55.4478 28.9999 55 28.5522 55 28V26H31.001C30.7219 26 30.4549 25.8837 30.2656 25.6787L25.5625 19H10.001V54.8369L17.0537 33.6836C17.1899 33.2753 17.5725 33 18.0029 33H65.001C65.6833 33.0001 66.1649 33.669 65.9492 34.3164L56.9551 61.3164C56.8189 61.7247 56.4363 62 56.0059 62H9.00098L8.89844 61.9951C8.89252 61.9945 8.88674 61.9929 8.88086 61.9922C8.87333 61.9913 8.86586 61.9903 8.8584 61.9893C8.83069 61.9853 8.8033 61.9808 8.77637 61.9746C8.75683 61.9702 8.73778 61.9645 8.71875 61.959C8.70626 61.9553 8.69392 61.9514 8.68164 61.9473C8.66151 61.9405 8.64155 61.9337 8.62207 61.9258C8.60544 61.919 8.58941 61.911 8.57324 61.9033C8.50782 61.8723 8.44689 61.8347 8.39062 61.791C8.37995 61.7828 8.36872 61.7753 8.3584 61.7666C8.34233 61.7531 8.32765 61.7381 8.3125 61.7236C8.30064 61.7124 8.28864 61.7013 8.27734 61.6895C8.26877 61.6804 8.26018 61.6714 8.25195 61.6621C8.23308 61.6408 8.21526 61.6186 8.19824 61.5957C8.19269 61.5882 8.18698 61.5809 8.18164 61.5732C8.12143 61.4873 8.07392 61.3918 8.04297 61.2891C8.03886 61.2756 8.03576 61.2618 8.03223 61.248C8.02624 61.2246 8.02089 61.2009 8.0166 61.1768C8.01408 61.1628 8.01169 61.1489 8.00977 61.1348C8.00738 61.117 8.00535 61.0991 8.00391 61.0811C8.00296 61.0694 8.0015 61.0577 8.00098 61.0459V18C8.00098 17.4477 8.4487 17 9.00098 17H26.001ZM10.3887 60H55.2852L63.6133 35H18.7236L10.3887 60ZM70.9727 24C71.5249 24 71.9727 24.4477 71.9727 25C71.9727 25.5523 71.5249 26 70.9727 26H65C64.4477 26 64 25.5523 64 25C64 24.4477 64.4477 24 65 24H70.9727ZM66.293 13.293C66.6835 12.9025 67.3165 12.9025 67.707 13.293C68.0975 13.6835 68.0975 14.3165 67.707 14.707L63.707 18.708C63.3165 19.0985 62.6835 19.0984 62.293 18.708C61.9024 18.3175 61.9025 17.6845 62.293 17.2939L66.293 13.293ZM56 9C56.5523 9 57 9.44772 57 10V16C57 16.5523 56.5523 17 56 17C55.4477 17 55 16.5523 55 16V10C55 9.44772 55.4477 9 56 9Z" fill="var(--fill-0, #C1C0CB)"/>
</g>
</svg>
