<svg preserveAspectRatio="none" width="100%" height="100%" overflow="visible" style="display: block;" viewBox="0 0 72 72" fill="none" xmlns="http://www.w3.org/2000/svg">
<g id="empty-editor">
<path id="Union" d="M26.792 13.9978C27.3439 13.998 27.7918 14.4458 27.792 14.9978C27.792 15.5499 27.3441 15.9975 26.792 15.9978H10.8965C9.56898 15.9978 8.82562 16.857 8.8252 17.5427V62.5847C8.82548 63.2704 9.56886 64.1296 10.8965 64.1296H53.5508C54.878 64.1293 55.6218 63.2703 55.6221 62.5847V45.3698C55.6223 44.8177 56.0699 44.3698 56.6221 44.3698C57.1738 44.3702 57.6218 44.818 57.6221 45.3698V62.5847C57.6218 64.7098 55.6148 66.1293 53.5508 66.1296H10.8965C8.83223 66.1296 6.82544 64.71 6.8252 62.5847V17.5427C6.82556 15.4175 8.83229 13.9978 10.8965 13.9978H26.792ZM48.0928 13.0895C48.4797 12.786 49.0379 12.8072 49.4004 13.154L59.8428 23.1511C60.0398 23.3397 60.1513 23.601 60.1514 23.8737C60.1513 24.1464 60.0398 24.4078 59.8428 24.5964L34.6611 48.7038C34.5089 48.8493 34.3141 48.9438 34.1055 48.9724L21.917 50.6433C21.6052 50.6858 21.2915 50.579 21.0703 50.3552C20.8491 50.1312 20.7455 49.8159 20.792 49.5046L22.5381 37.8356C22.5709 37.6168 22.6762 37.4145 22.8359 37.2614L48.0176 13.154L48.0928 13.0895ZM24.4658 38.4694L22.9678 48.4802L33.5107 47.0349L57.7051 23.8728L48.708 15.2604L24.4658 38.4694Z" fill="var(--fill-0, #706D84)"/>
<path id="Vector" d="M69.1298 19.6312C69.395 19.6312 69.6493 19.5273 69.8369 19.3423C70.0244 19.1573 70.1298 18.9064 70.1298 18.6448C70.1298 18.3832 70.0244 18.1324 69.8369 17.9474C69.6493 17.7624 69.395 17.6585 69.1298 17.6585H63.1298C62.8645 17.6585 62.6102 17.7624 62.4226 17.9474C62.2351 18.1324 62.1298 18.3832 62.1298 18.6448C62.1298 18.9064 62.2351 19.1573 62.4226 19.3423C62.6102 19.5273 62.8645 19.6312 63.1298 19.6312H69.1298ZM55.1298 3.87601C55.1298 3.61441 55.0244 3.36353 54.8369 3.17855C54.6493 2.99357 54.395 2.88965 54.1298 2.88965C53.8645 2.88965 53.6102 2.99357 53.4226 3.17855C53.2351 3.36353 53.1298 3.61441 53.1298 3.87601V9.76757C53.1298 10.0292 53.2351 10.2801 53.4226 10.465C53.6102 10.65 53.8645 10.7539 54.1298 10.7539C54.395 10.7539 54.6493 10.65 54.8369 10.465C55.0244 10.2801 55.1298 10.0292 55.1298 9.76757V3.87601ZM65.8368 8.4922C65.9323 8.40121 66.0085 8.29237 66.0609 8.17203C66.1133 8.05169 66.1409 7.92226 66.142 7.79129C66.1432 7.66032 66.1179 7.53044 66.0676 7.40921C66.0173 7.28799 65.943 7.17786 65.8492 7.08525C65.7553 6.99264 65.6436 6.9194 65.5207 6.8698C65.3978 6.82021 65.2661 6.79525 65.1334 6.79639C65.0006 6.79753 64.8694 6.82474 64.7474 6.87643C64.6253 6.92813 64.515 7.00327 64.4228 7.09748L60.4228 11.0429C60.325 11.1333 60.2467 11.2422 60.1924 11.3631C60.1382 11.4839 60.1091 11.6143 60.1069 11.7464C60.1047 11.8786 60.1295 12.0098 60.1798 12.1323C60.23 12.2549 60.3047 12.3662 60.3994 12.4597C60.4941 12.5531 60.6069 12.6269 60.7311 12.6766C60.8553 12.7262 60.9883 12.7507 61.1223 12.7487C61.2563 12.7466 61.3885 12.718 61.5111 12.6646C61.6336 12.6112 61.744 12.534 61.8358 12.4377L65.8368 8.4922V8.4922Z" fill="var(--fill-0, #706D84)"/>
</g>
</svg>
