<svg preserveAspectRatio="none" width="100%" height="100%" overflow="visible" style="display: block;" viewBox="0 0 16 16" fill="none" xmlns="http://www.w3.org/2000/svg">
<g id="Basic / Expand-16">
<path id="Icon" fill-rule="evenodd" clip-rule="evenodd" d="M11.4462 9.397L11.5303 9.4697C11.6574 9.59679 11.7346 9.76526 11.7479 9.94447C11.7612 10.1237 11.7098 10.3017 11.6029 10.4462L11.5303 10.5303L8.5303 13.5303C8.40321 13.6574 8.23474 13.7346 8.05553 13.7479C7.87632 13.7612 7.69828 13.7098 7.5538 13.6029L7.4697 13.5303L4.4697 10.5303C4.33582 10.3965 4.25751 10.2169 4.25048 10.0277C4.24346 9.83857 4.30823 9.65373 4.43181 9.51032C4.55539 9.36691 4.72863 9.27553 4.91678 9.25453C5.10492 9.23354 5.29404 9.28446 5.4462 9.3971L5.5303 9.4697L8 11.939L10.4697 9.4697C10.5968 9.34265 10.7653 9.26544 10.9445 9.25211C11.1237 9.23879 11.3017 9.29024 11.4462 9.3971V9.397ZM8.4462 2.397L8.5303 2.4697L11.5303 5.4697C11.6642 5.60355 11.7425 5.78307 11.7495 5.97225C11.7565 6.16143 11.6918 6.34627 11.5682 6.48968C11.4446 6.63309 11.2714 6.72447 11.0832 6.74546C10.8951 6.76646 10.706 6.71554 10.5538 6.6029L10.4697 6.5303L8 4.061L5.5303 6.5303C5.40321 6.65735 5.23474 6.73456 5.05553 6.74789C4.87632 6.76121 4.69828 6.70976 4.5538 6.6029L4.4697 6.5303C4.34265 6.40321 4.26544 6.23474 4.25211 6.05553C4.23879 5.87632 4.29024 5.69828 4.3971 5.5538L4.4697 5.4697L7.4697 2.4697C7.59679 2.34265 7.76526 2.26544 7.94447 2.25211C8.12368 2.23879 8.30172 2.29024 8.4462 2.3971V2.397Z" fill="var(--fill-0, #C1C0CB)"/>
</g>
</svg>
