<svg preserveAspectRatio="none" width="100%" height="100%" overflow="visible" style="display: block;" viewBox="0 0 16.0722 16.0816" fill="none" xmlns="http://www.w3.org/2000/svg">
<g id="Basic / layers-16">
<path id="Icon" d="M13.8311 10.4138C13.9814 10.1232 14.3392 10.0097 14.6299 10.1599L15.4609 10.5896C15.7918 10.7611 15.9999 11.1027 16 11.4754C16 11.811 15.831 12.1216 15.5557 12.3054L15.46 12.3621L8.73828 15.8396C8.31738 16.057 7.82392 16.0772 7.38965 15.8992L7.26172 15.8396L0.539062 12.3621C0.207913 12.1905 0 11.8483 0 11.4754C0.000149251 11.1027 0.207973 10.7613 0.539062 10.5896L1.36816 10.1609C1.65875 10.0108 2.01566 10.1243 2.16602 10.4148C2.31639 10.7055 2.2028 11.0633 1.91211 11.2136L1.4043 11.4754L7.80566 14.7869C7.90302 14.8371 8.01513 14.8471 8.11816 14.8171L8.19336 14.7869L14.5938 11.4754L14.0859 11.2127C13.7953 11.0623 13.6808 10.7045 13.8311 10.4138ZM13.8311 6.93824C13.9814 6.64768 14.3393 6.53329 14.6299 6.68336L15.4609 7.11305C15.792 7.28461 16 7.62686 16 7.99976C16 8.33545 15.831 8.64597 15.5557 8.82984L15.46 8.88648L8.73828 12.364C8.31737 12.5814 7.82393 12.6006 7.38965 12.4226L7.26172 12.363L0.539062 8.88648C0.207856 8.71496 0 8.37275 0 7.99976C1.56144e-06 7.62684 0.207718 7.28472 0.539062 7.11305L1.36816 6.68433C1.65875 6.5344 2.01574 6.64872 2.16602 6.93922C2.31624 7.22985 2.20269 7.58671 1.91211 7.73707L1.40527 7.99879L7.80566 11.3103C7.90312 11.3606 8.01502 11.3707 8.11816 11.3406L8.19336 11.3103L14.5938 7.99879L14.0859 7.73609C13.7954 7.5858 13.681 7.22885 13.8311 6.93824ZM7.26172 0.179452C7.68252 -0.0378597 8.17527 -0.0579073 8.60938 0.119881L8.73828 0.179452L15.4727 3.6609C15.796 3.8379 15.9999 4.17544 16 4.54469C16 4.88032 15.8311 5.19079 15.5557 5.37476L15.46 5.4314L8.73828 8.90504C8.31737 9.12241 7.82393 9.14162 7.38965 8.96363L7.26172 8.90504L0.539062 5.4275C0.207869 5.25597 0 4.91376 0 4.54078C7.25878e-05 4.20518 0.168282 3.89444 0.443359 3.7107L0.539062 3.65504L7.26172 0.179452ZM7.88086 1.20191L7.80566 1.23219L1.4043 4.54078L7.80566 7.85133C7.87878 7.88909 7.96034 7.90476 8.04004 7.89723L8.11816 7.8816L8.19434 7.8523L14.5977 4.54176L8.19434 1.23219C8.09684 1.18184 7.9841 1.17177 7.88086 1.20191Z" fill="var(--fill-0, white)"/>
</g>
</svg>
