<svg preserveAspectRatio="none" width="100%" height="100%" overflow="visible" style="display: block;" viewBox="0 0 16 16" fill="none" xmlns="http://www.w3.org/2000/svg">
<g id="Basic /  Shallow-copy-16" clip-path="url(#clip0_0_399)">
<path id="Icon" d="M8.4873 10.6084C8.78011 10.3157 9.25497 10.3158 9.54785 10.6084C9.84071 10.9013 9.84063 11.376 9.54785 11.6689L9.19434 12.0234C8.70652 12.5116 8.70629 13.303 9.19434 13.791C9.68238 14.279 10.4737 14.2788 10.9619 13.791L11.3154 13.4375C11.6083 13.1446 12.0841 13.1446 12.377 13.4375C12.6694 13.7304 12.6696 14.2053 12.377 14.498L12.0234 14.8516C10.9495 15.9255 9.20773 15.9255 8.13379 14.8516C7.05985 13.7776 7.05985 12.0359 8.13379 10.9619L8.4873 10.6084ZM14.5 0.75C14.9142 0.75 15.25 1.08579 15.25 1.5V5.5C15.25 5.91421 14.9142 6.25 14.5 6.25C14.0858 6.25 13.75 5.91421 13.75 5.5V2.25H2.25V13.75H5.5C5.91421 13.75 6.25 14.0858 6.25 14.5C6.25 14.9142 5.91421 15.25 5.5 15.25H1.5C1.08579 15.25 0.75 14.9142 0.75 14.5V1.5C0.75 1.08579 1.08579 0.75 1.5 0.75H14.5ZM12.0225 9.90137C12.3153 9.60862 12.7901 9.60877 13.083 9.90137C13.3759 10.1942 13.3758 10.669 13.083 10.9619L10.9619 13.084C10.6691 13.3766 10.1942 13.3766 9.90137 13.084C9.60854 12.7912 9.60868 12.3163 9.90137 12.0234L12.0225 9.90137ZM10.9619 8.13379C12.0359 7.05985 13.7776 7.05985 14.8516 8.13379C15.9255 9.20773 15.9255 10.9495 14.8516 12.0234L14.498 12.377C14.2053 12.6696 13.7304 12.6694 13.4375 12.377C13.1446 12.0841 13.1446 11.6083 13.4375 11.3154L13.791 10.9619C14.2788 10.4737 14.279 9.68238 13.791 9.19434C13.303 8.70629 12.5116 8.70652 12.0234 9.19434L11.6689 9.54785C11.376 9.84063 10.9013 9.84071 10.6084 9.54785C10.3158 9.25497 10.3157 8.78011 10.6084 8.4873L10.9619 8.13379ZM6.5 9.25C6.91421 9.25 7.25 9.58579 7.25 10C7.25 10.4142 6.91421 10.75 6.5 10.75H4.5C4.08579 10.75 3.75 10.4142 3.75 10C3.75 9.58579 4.08579 9.25 4.5 9.25H6.5ZM11.5 5.25C11.9142 5.25 12.25 5.58579 12.25 6C12.25 6.41421 11.9142 6.75 11.5 6.75H4.5C4.08579 6.75 3.75 6.41421 3.75 6C3.75 5.58579 4.08579 5.25 4.5 5.25H11.5Z" fill="var(--fill-0, #F74D7E)"/>
</g>
<defs>
<clipPath id="clip0_0_399">
<rect width="16" height="16" fill="white"/>
</clipPath>
</defs>
</svg>
