<svg preserveAspectRatio="none" width="100%" height="100%" overflow="visible" style="display: block;" viewBox="0 0 40 40" fill="none" xmlns="http://www.w3.org/2000/svg">
<g id="Basic / Shallow-copy-XL" opacity="0.6">
<path id="Icon" d="M21.0605 26.1182C21.4572 25.7341 22.1005 25.734 22.4971 26.1182C22.8933 26.5024 22.8933 27.1256 22.4971 27.5098L21.7129 28.2695C20.3776 29.5631 20.3776 31.6596 21.7129 32.9531C23.0482 34.2466 25.2126 34.2466 26.5479 32.9531L27.332 32.1934C27.7287 31.8095 28.372 31.8095 28.7686 32.1934C29.165 32.5775 29.1648 33.2007 28.7686 33.585L27.9844 34.3447C25.8558 36.4068 22.405 36.4067 20.2764 34.3447C18.1478 32.2826 18.1478 28.94 20.2764 26.8779L21.0605 26.1182ZM31 5.07031C32.6569 5.07031 34 6.41346 34 8.07031V14.6855C34 15.2378 33.5523 15.6855 33 15.6855C32.4477 15.6855 32 15.2378 32 14.6855V8.07031C32 7.51803 31.5523 7.07031 31 7.07031H9C8.44772 7.07031 8 7.51803 8 8.07031V32.0703C8 32.6226 8.44772 33.0703 9 33.0703H15C15.5523 33.0703 16 33.518 16 34.0703C16 34.6226 15.5523 35.0703 15 35.0703H9C7.34315 35.0703 6 33.7272 6 32.0703V8.07031C6 6.41346 7.34315 5.07031 9 5.07031H31ZM28.8984 24.5996C29.2951 24.2153 29.9383 24.2153 30.335 24.5996C30.7313 24.9838 30.7313 25.606 30.335 25.9902L25.6309 30.5469C25.2342 30.9312 24.592 30.9312 24.1953 30.5469C23.7986 30.1626 23.7986 29.5405 24.1953 29.1562L28.8984 24.5996ZM26.751 20.6143C28.8906 18.7417 32.1948 18.8042 34.2568 20.8018C36.385 22.8638 36.3852 26.2076 34.2568 28.2695L33.4727 29.0283C33.076 29.4125 32.4328 29.4125 32.0361 29.0283C31.6395 28.6441 31.6395 28.021 32.0361 27.6367L32.8203 26.8779C34.1553 25.5845 34.1552 23.4869 32.8203 22.1934C31.5268 20.9402 29.4535 20.9004 28.1113 22.0752L27.9844 22.1934L27.2002 22.9531C26.8035 23.3371 26.1603 23.3372 25.7637 22.9531C25.3671 22.5689 25.3673 21.9458 25.7637 21.5615L26.5479 20.8018L26.751 20.6143ZM18 23C18.5523 23 19 23.4477 19 24C19 24.5523 18.5523 25 18 25H14C13.4477 25 13 24.5523 13 24C13 23.4477 13.4477 23 14 23H18ZM26.1025 14.7783C26.6067 14.8297 27 15.2558 27 15.7734C27 16.2911 26.6067 16.7172 26.1025 16.7686L26 16.7734H14C13.4477 16.7734 13 16.3257 13 15.7734C13 15.2212 13.4477 14.7734 14 14.7734H26L26.1025 14.7783Z" fill="var(--fill-0, #F74D7E)"/>
</g>
</svg>
