<svg width="95" height="28" viewBox="0 0 95 28" fill="none" xmlns="http://www.w3.org/2000/svg">
<path fill-rule="evenodd" clip-rule="evenodd" d="M29.165 10.8835C28.548 10.319 27.656 9.89846 26.6965 9.89846C25.647 9.89846 24.57 10.292 24.57 11.3601C24.57 12.4011 25.592 12.6827 27.443 13.1322C29.403 13.6102 31.723 14.5103 31.723 17.153C31.723 20.4443 29.099 21.6534 26.1995 21.6534C24.3835 21.6534 22.5015 21.0313 21.2135 19.8858C21.0165 19.7102 20.9315 19.2657 21.2205 18.9903C21.314 18.9012 22.468 17.8006 22.468 17.8006C22.6205 17.6509 23.0545 17.573 23.369 17.8331C24.1045 18.5423 25.1555 19.0382 26.3375 19.0382C27.304 19.0382 28.4645 18.6446 28.4645 17.4355C28.4645 16.3099 27.443 15.9719 25.426 15.4944C23.4655 15.0163 21.5045 14.2008 21.5045 11.6701C21.5045 8.66137 24.1555 7.36675 26.7795 7.36675C28.459 7.36675 30.1615 7.913 31.287 8.98108C31.568 9.27228 31.419 9.72435 31.2285 9.89286C30.9285 10.1652 30.3095 10.7237 30.061 10.9436C29.8275 11.1493 29.4675 11.1498 29.165 10.8835" fill="white"/>
<path fill-rule="evenodd" clip-rule="evenodd" d="M32.9921 9.82286V8.40249C32.9921 8.04664 33.2456 7.76053 33.6271 7.76053H35.3126V4.49929C35.3126 4.12715 35.5981 3.85275 35.9576 3.85275H37.9216C38.3246 3.85275 38.5711 4.1302 38.5711 4.49929V7.76053H41.2516C41.6316 7.76053 41.8856 8.02628 41.8856 8.40199V9.82286C41.8856 10.2388 41.6341 10.4613 41.2516 10.4613H38.5711V16.7312C38.5711 17.9403 38.8476 18.8124 40.3116 18.8124C40.5486 18.8124 40.8256 18.7879 41.0911 18.735C41.4546 18.6673 41.7381 18.9768 41.7536 19.3474C41.7696 19.7181 41.7911 20.2628 41.8096 20.6833C41.8281 21.1038 41.5061 21.284 41.2046 21.3604C40.7061 21.4744 40.1311 21.5401 39.6211 21.5401C36.1131 21.5401 35.3126 19.3464 35.3126 16.7592V10.4613H33.6271C33.2606 10.4613 32.9921 10.2235 32.9921 9.82286" fill="white"/>
<path fill-rule="evenodd" clip-rule="evenodd" d="M50.7216 18.8414C53.3446 18.8414 54.5606 16.5622 54.5606 14.4545C54.5606 12.3443 53.3446 10.1232 50.7216 10.1232C48.0976 10.1232 46.8816 12.3443 46.8816 14.4545C46.8816 16.5622 48.0976 18.8414 50.7216 18.8414M50.7216 7.36695C54.7256 7.36695 57.9296 10.2077 57.9296 14.4545C57.9296 18.7003 54.7256 21.6531 50.7216 21.6531C46.7166 21.6531 43.5126 18.7003 43.5126 14.4545C43.5126 10.2077 46.7166 7.36695 50.7216 7.36695" fill="white"/>
<path fill-rule="evenodd" clip-rule="evenodd" d="M60.9667 7.76063H62.8367C63.2117 7.76063 63.4807 8.04878 63.4807 8.40871V9.92631H63.5367C64.1167 8.5762 65.6907 7.36711 67.6517 7.36711C71.1037 7.36711 72.5397 10.0673 72.5397 12.8225V20.6131C72.5397 21.0886 72.3457 21.2597 71.9057 21.2597H69.8652C69.4457 21.2597 69.2262 21.025 69.2262 20.6126V13.7781C69.2262 12.1755 68.8667 10.1788 66.7397 10.1788C64.6412 10.1788 63.6467 12.036 63.6467 13.8361V20.6131C63.6467 20.9929 63.3857 21.2597 63.0067 21.2597H60.9667C60.5682 21.2597 60.3322 20.9955 60.3322 20.6121V8.40871C60.3322 8.03656 60.5967 7.76063 60.9667 7.76063" fill="white"/>
<path fill-rule="evenodd" clip-rule="evenodd" d="M76.1254 0H78.1689C78.5849 0 78.8039 0.226036 78.8039 0.646545V20.6131C78.8039 21.0316 78.5624 21.2596 78.1694 21.2596H76.1254C75.7299 21.2596 75.4904 21.026 75.4904 20.6131V0.646545C75.4904 0.184291 75.6869 0 76.1254 0" fill="white"/>
<path fill-rule="evenodd" clip-rule="evenodd" d="M81.4815 7.76063H84.1195C84.3395 7.76063 84.581 7.92303 84.7625 8.40463C84.9445 8.88572 88.221 17.5744 88.221 17.5744H88.276C88.276 17.5744 91.192 8.86536 91.3465 8.40565C91.502 7.94543 91.797 7.76063 91.988 7.76063H94.3805C94.748 7.76063 94.882 8.10885 94.7675 8.40769C94.6535 8.70652 88.7455 24.1549 88.7455 24.1549C87.807 26.6021 86.647 28.0077 83.7195 28.0077C83.3665 28.0077 83.002 27.9848 82.634 27.9318C82.257 27.887 82.026 27.6116 82.063 27.2186C82.1 26.8251 82.175 26.0024 82.2145 25.6104C82.254 25.2184 82.6435 25.003 82.909 25.0336C83.1295 25.0682 83.3385 25.0835 83.526 25.0835C84.934 25.0835 85.321 24.3799 85.8735 22.9738L86.5365 21.2597C86.5365 21.2597 81.2515 8.72027 81.1215 8.41176C80.9915 8.10274 81.1925 7.76063 81.4815 7.76063" fill="white"/>
<path fill-rule="evenodd" clip-rule="evenodd" d="M13.7094 10.6842C12.7019 10.6842 11.8784 11.5232 11.8784 12.5485C11.8784 13.5738 12.7019 14.4133 13.7094 14.4133C14.7164 14.4133 15.5404 13.5738 15.5404 12.5485C15.5404 11.5232 14.7164 10.6842 13.7094 10.6842" fill="#E61168"/>
<path fill-rule="evenodd" clip-rule="evenodd" d="M8.2402 10.6842H4.5777C3.5707 10.6842 2.7467 11.5232 2.7467 12.5485C2.7467 13.5743 3.5707 14.4128 4.5777 14.4128H8.2402C9.2477 14.4128 10.0712 13.5743 10.0712 12.5485C10.0712 11.5232 9.2477 10.6842 8.2402 10.6842" fill="#E61168"/>
<path fill-rule="evenodd" clip-rule="evenodd" d="M10.9868 3.84776H7.32477C6.31727 3.84776 5.49377 4.68674 5.49377 5.71205C5.49377 6.73787 6.31727 7.57685 7.32477 7.57685H10.9868C11.9943 7.57685 12.8178 6.73787 12.8178 5.71205C12.8178 4.68674 11.9943 3.84776 10.9868 3.84776" fill="#E61168"/>
<path fill-rule="evenodd" clip-rule="evenodd" d="M13.7338 17.5204H7.32429C6.31729 17.5204 5.49329 18.3593 5.49329 19.3852C5.49329 20.41 6.31729 21.2495 7.32429 21.2495H13.7338C14.7408 21.2495 15.5648 20.41 15.5648 19.3852C15.5648 18.3593 14.7408 17.5204 13.7338 17.5204" fill="#E61168"/>
<path fill-rule="evenodd" clip-rule="evenodd" d="M1.831 17.5204C0.824 17.5204 0 18.3593 0 19.3852C0 20.41 0.824 21.2495 1.831 21.2495C2.8385 21.2495 3.6625 20.41 3.6625 19.3852C3.6625 18.3593 2.8385 17.5204 1.831 17.5204" fill="#E61168"/>
</svg>
