<svg width="8" height="16" viewBox="0 0 8 16" fill="none" xmlns="http://www.w3.org/2000/svg">
<path fill-rule="evenodd" clip-rule="evenodd" d="M1.21959 9.53025C0.926739 9.23731 0.926814 8.76243 1.21975 8.46959C1.51269 8.17674 1.98757 8.17681 2.28041 8.46975L3.25 9.43989V4.25C3.25 3.83579 3.58579 3.5 4 3.5C4.41421 3.5 4.75 3.83579 4.75 4.25V9.43989L5.71959 8.46975C6.01243 8.17681 6.48731 8.17674 6.78025 8.46959C7.07319 8.76243 7.07326 9.23731 6.78041 9.53025L4.53041 11.7812C4.39468 11.917 4.20715 12.001 4 12.001C3.79285 12.001 3.60532 11.917 3.46959 11.7812L1.21959 9.53025Z" fill="#8B8E95"/>
</svg>
