<svg width="40" height="40" viewBox="0 0 40 40" fill="none" xmlns="http://www.w3.org/2000/svg">
<path fill-rule="evenodd" clip-rule="evenodd" d="M14 17C13.4477 17 13 16.5523 13 16C13 15.4477 13.4477 15 14 15H26C26.5523 15 27 15.4477 27 16C27 16.5523 26.5523 17 26 17H14ZM14 25C13.4477 25 13 24.5523 13 24C13 23.4477 13.4477 23 14 23H26C26.5523 23 27 23.4477 27 24C27 24.5523 26.5523 25 26 25H14Z" fill="#FF809E"/>
<path fill-rule="evenodd" clip-rule="evenodd" d="M31 7H9C8.44772 7 8 7.44772 8 8V32C8 32.5523 8.44772 33 9 33H31C31.5523 33 32 32.5523 32 32V8C32 7.44772 31.5523 7 31 7ZM9 5C7.34315 5 6 6.34315 6 8V32C6 33.6569 7.34315 35 9 35H31C32.6569 35 34 33.6569 34 32V8C34 6.34315 32.6569 5 31 5H9Z" fill="#FF809E"/>
</svg>
