<svg width="40" height="40" viewBox="0 0 40 40" fill="none" xmlns="http://www.w3.org/2000/svg">
<path fill-rule="evenodd" clip-rule="evenodd" d="M18 6H33C34.6569 6 36 7.34315 36 9V31C36 32.6569 34.6569 34 33 34H18C16.3431 34 15 32.6569 15 31V9C15 7.34315 16.3431 6 18 6ZM33 8H18C17.4477 8 17 8.44772 17 9V31C17 31.5523 17.4477 32 18 32H33C33.5523 32 34 31.5523 34 31V9C34 8.44772 33.5523 8 33 8Z" fill="#958BD3"/>
<path d="M11.3739 6.21877C11.8858 6.01138 12.4688 6.25821 12.6762 6.77008C12.8688 7.24539 12.6697 7.78209 12.2305 8.02238L12.1249 8.07241C11.7878 8.20902 11.5513 8.518 11.5074 8.87818L11.5 8.99997V31C11.5 31.3701 11.7028 31.7024 12.0165 31.8758L12.125 31.9276C12.6369 32.1349 12.8838 32.7179 12.6765 33.2298C12.4692 33.7417 11.8862 33.9886 11.3743 33.7813C10.3099 33.3502 9.58006 32.3461 9.50618 31.1934L9.5 31V8.99997C9.5 7.76727 10.2506 6.6739 11.3739 6.21877Z" fill="#958BD3"/>
<path d="M5.87391 6.21877C6.38577 6.01138 6.96885 6.25821 7.17623 6.77008C7.36881 7.24539 7.16974 7.78209 6.73048 8.02238L6.62492 8.07241C6.28775 8.20902 6.0513 8.518 6.00738 8.87818L6 8.99997V31C6 31.3701 6.20278 31.7024 6.51649 31.8758L6.62504 31.9276C7.13694 32.1349 7.38384 32.7179 7.17652 33.2298C6.9692 33.7417 6.38616 33.9886 5.87426 33.7813C4.80988 33.3502 4.08006 32.3461 4.00618 31.1934L4 31V8.99997C4 7.76727 4.75058 6.6739 5.87391 6.21877Z" fill="#958BD3"/>
</svg>
