<svg width="16" height="16" viewBox="0 0 16 16" fill="none" xmlns="http://www.w3.org/2000/svg">
<path fill-rule="evenodd" clip-rule="evenodd" d="M14.3027 8C14.3027 7.61491 14.6149 7.30273 15 7.30273C15.3851 7.30273 15.6973 7.61491 15.6973 8C15.6973 12.2508 12.2508 15.6973 8 15.6973C3.74857 15.6973 0.302734 12.2511 0.302734 8C0.302734 3.74887 3.74857 0.302734 8 0.302734C8.38509 0.302734 8.69727 0.614911 8.69727 1C8.69727 1.38509 8.38509 1.69727 8 1.69727C4.51878 1.69727 1.69727 4.51902 1.69727 8C1.69727 11.481 4.51878 14.3027 8 14.3027C11.4807 14.3027 14.3027 11.4807 14.3027 8ZM12.425 2.60558C12.6428 2.28803 13.0769 2.20718 13.3944 2.42501C13.712 2.64284 13.7928 3.07686 13.575 3.39442L8.0874 11.3944C7.80359 11.8082 7.18881 11.7957 6.92195 11.3709L4.40954 7.37087C4.20472 7.04477 4.30303 6.61437 4.62913 6.40954C4.95523 6.20472 5.38563 6.30303 5.59046 6.62913L7.53807 9.72993L12.425 2.60558Z" fill="#848296"/>
</svg>
