<svg width="24" height="24" viewBox="0 0 24 24" fill="none" xmlns="http://www.w3.org/2000/svg">
<path d="M11.823 7.0293C12.6188 7.02935 13.3558 7.44965 13.7605 8.13477L14.3748 9.1748C14.5098 9.40272 14.7553 9.54297 15.0203 9.54297H22.0877C23.2738 9.5433 24.1165 10.6987 23.7537 11.8281L21.0965 20.1016C20.8639 20.8252 20.1896 21.3163 19.4295 21.3164H5.53397C4.73627 21.3163 4.03926 20.7762 3.83963 20.0039L1.05643 9.2168C0.770575 8.10911 1.60679 7.0293 2.75077 7.0293H11.823ZM2.75077 8.5293C2.58734 8.5293 2.46774 8.68356 2.50858 8.8418L5.29178 19.6289C5.3204 19.739 5.42026 19.8163 5.53397 19.8164H19.4295C19.5379 19.8163 19.6345 19.7458 19.6678 19.6426L22.325 11.3691C22.3767 11.208 22.2569 11.0433 22.0877 11.043H15.0203C14.2246 11.043 13.4876 10.6225 13.0828 9.9375L12.4685 8.89746C12.3336 8.66939 12.0881 8.52935 11.823 8.5293H2.75077ZM21.1287 3C22.6472 3.00017 23.8785 4.23148 23.8787 5.75V7.16016C23.8787 7.57426 23.5428 7.90999 23.1287 7.91016C22.7145 7.91016 22.3787 7.57437 22.3787 7.16016V5.75C22.3785 5.05991 21.8188 4.50017 21.1287 4.5H2.22928C1.81519 4.49986 1.47928 4.16412 1.47928 3.75C1.47947 3.33603 1.81531 3.00014 2.22928 3H21.1287Z" fill="#2C9F72"/>
</svg>
